<?xml version="1.0" encoding="UTF-8" standalone="no"?>
<!DOCTYPE svg PUBLIC "-//W3C//DTD SVG 1.1//EN" "http://www.w3.org/Graphics/SVG/1.1/DTD/svg11.dtd">
<svg version="1.1" xmlns="http://www.w3.org/2000/svg" xmlns:xlink="http://www.w3.org/1999/xlink" preserveAspectRatio="xMidYMid meet" viewBox="0 0 640 640" width="200" height="200"><defs><path d="M320 76.8L320 76.8L81.66 161.79L118.02 476.93L320 588.8L320 588.8L320 588.8L521.98 476.93L558.34 161.79L320 76.8L320 76.8Z" id="a4KNRTD6Qm"></path><path d="M320 133.63L320 133.38L320 392.7L320 392.7L320 588.8L320 588.8L521.98 476.93L558.34 161.79L320 76.8L320 76.8L320 133.63Z" id="bKIobxBwF"></path><path d="M347.75 216.91C346.39 216.46 345.06 216.6 343.77 217.33C342.47 218.07 341.6 219.17 341.15 220.63C334.84 242.47 284.35 417.2 278.04 439.04C277.59 440.51 277.73 441.89 278.47 443.19C279.2 444.49 280.3 445.36 281.76 445.81C282.81 446.1 291.2 448.4 292.25 448.69C293.61 449.14 294.93 449 296.23 448.27C297.53 447.53 298.4 446.43 298.85 444.97C305.16 423.13 355.65 248.4 361.96 226.55C362.41 225.09 362.27 223.71 361.53 222.41C360.8 221.11 359.7 220.23 358.24 219.79C356.14 219.21 348.79 217.2 347.75 216.91Z" id="a8XPjRpES"></path><path d="M261.97 258.53C261.13 257.68 254.36 250.92 253.51 250.07C252.39 248.94 251.09 248.38 249.62 248.38C248.16 248.38 246.86 248.94 245.73 250.07C237.85 257.95 174.78 321.02 166.89 328.91C165.76 330.04 165.2 331.33 165.2 332.8C165.2 334.27 165.77 335.56 166.89 336.69C174.78 344.57 237.85 407.64 245.73 415.53C246.86 416.66 248.15 417.22 249.62 417.22C251.09 417.22 252.39 416.65 253.51 415.53C254.36 414.68 261.13 407.92 261.97 407.07C263.1 405.95 263.67 404.65 263.67 403.18C263.67 401.71 263.1 400.42 261.97 399.29C257.54 394.86 235.38 372.69 195.49 332.8C235.38 292.91 257.54 270.75 261.97 266.31C263.1 265.19 263.67 263.89 263.67 262.42C263.67 260.96 263.1 259.66 261.97 258.53Z" id="b4ufMtrty9"></path><path d="M394.27 250.07C393.14 248.94 391.84 248.38 390.38 248.38C388.91 248.38 387.62 248.94 386.49 250.07C385.64 250.91 378.87 257.68 378.03 258.53C376.9 259.66 376.34 260.95 376.34 262.42C376.34 263.89 376.9 265.18 378.03 266.31C382.46 270.74 404.62 292.91 444.52 332.8C404.62 372.69 382.46 394.86 378.03 399.29C376.9 400.42 376.34 401.72 376.34 403.18C376.34 404.65 376.9 405.95 378.03 407.07C378.87 407.92 385.64 414.68 386.49 415.53C387.62 416.66 388.91 417.22 390.38 417.22C391.84 417.22 393.14 416.65 394.27 415.53C402.15 407.64 465.22 344.57 473.11 336.69C474.23 335.56 474.8 334.26 474.8 332.8C474.8 331.33 474.23 330.03 473.11 328.91C457.34 313.14 402.15 257.95 394.27 250.07Z" id="b3iyJK0sJv"></path></defs><g><g><g><use xlink:href="#a4KNRTD6Qm" opacity="1" fill="#c62828" fill-opacity="1"></use><g><use xlink:href="#a4KNRTD6Qm" opacity="1" fill-opacity="0" stroke="#000000" stroke-width="1" stroke-opacity="0"></use></g></g><g><use xlink:href="#bKIobxBwF" opacity="1" fill="#a11b1b" fill-opacity="1"></use><g><use xlink:href="#bKIobxBwF" opacity="1" fill-opacity="0" stroke="#000000" stroke-width="1" stroke-opacity="0"></use></g></g><g><g><use xlink:href="#a8XPjRpES" opacity="1" fill="#ffffff" fill-opacity="1"></use><g><use xlink:href="#a8XPjRpES" opacity="1" fill-opacity="0" stroke="#000000" stroke-width="1" stroke-opacity="0"></use></g></g><g><use xlink:href="#b4ufMtrty9" opacity="1" fill="#ffffff" fill-opacity="1"></use><g><use xlink:href="#b4ufMtrty9" opacity="1" fill-opacity="0" stroke="#000000" stroke-width="1" stroke-opacity="0"></use></g></g><g><use xlink:href="#b3iyJK0sJv" opacity="1" fill="#ffffff" fill-opacity="1"></use><g><use xlink:href="#b3iyJK0sJv" opacity="1" fill-opacity="0" stroke="#000000" stroke-width="1" stroke-opacity="0"></use></g></g></g></g></g></svg>